<svg width="15" height="11" viewBox="0 0 15 11" fill="none" xmlns="http://www.w3.org/2000/svg">
<path d="M14.1573 0.708867C14.0647 0.615497 13.9545 0.541388 13.8332 0.490814C13.7118 0.44024 13.5816 0.414202 13.45 0.414202C13.3185 0.414202 13.1883 0.44024 13.0669 0.490814C12.9456 0.541388 12.8354 0.615497 12.7428 0.708867L5.32132 8.14028L2.20331 5.01231C2.10716 4.91943 1.99366 4.8464 1.86928 4.79738C1.7449 4.74837 1.61209 4.72433 1.47842 4.72664C1.34476 4.72895 1.21286 4.75757 1.09025 4.81086C0.967642 4.86415 0.856731 4.94106 0.76385 5.03722C0.670969 5.13337 0.597936 5.24687 0.548921 5.37125C0.499905 5.49563 0.475867 5.62844 0.47818 5.76211C0.480492 5.89577 0.50911 6.02767 0.562398 6.15028C0.615687 6.27289 0.692603 6.3838 0.788754 6.47668L4.61404 10.302C4.70665 10.3953 4.81682 10.4694 4.93822 10.52C5.05961 10.5706 5.18981 10.5966 5.32132 10.5966C5.45283 10.5966 5.58303 10.5706 5.70442 10.52C5.82581 10.4694 5.93599 10.3953 6.0286 10.302L14.1573 2.17323C14.2584 2.07995 14.3391 1.96673 14.3943 1.84072C14.4495 1.7147 14.478 1.57862 14.478 1.44105C14.478 1.30348 14.4495 1.1674 14.3943 1.04138C14.3391 0.915366 14.2584 0.80215 14.1573 0.708867Z" fill="#12C223"/>
</svg>
