<svg width="14" height="15" viewBox="0 0 14 15" fill="none" xmlns="http://www.w3.org/2000/svg">
<path d="M8.233 7.49925L13.7421 1.9989C13.9068 1.83424 13.9993 1.61091 13.9993 1.37804C13.9993 1.14517 13.9068 0.921835 13.7421 0.757171C13.5774 0.592507 13.3541 0.5 13.1212 0.5C12.8884 0.5 12.665 0.592507 12.5004 0.757171L7.00001 6.26627L1.49966 0.757171C1.335 0.592507 1.11167 0.5 0.878797 0.5C0.645927 0.5 0.422595 0.592507 0.257931 0.757171C0.0932672 0.921835 0.000760141 1.14517 0.000760139 1.37804C0.000760138 1.61091 0.0932672 1.83424 0.257931 1.9989L5.76703 7.49925L0.257931 12.9996C0.175969 13.0809 0.110915 13.1776 0.0665198 13.2842C0.0221246 13.3907 -0.000732422 13.505 -0.000732422 13.6205C-0.000732422 13.7359 0.0221246 13.8502 0.0665198 13.9568C0.110915 14.0633 0.175969 14.16 0.257931 14.2413C0.339224 14.3233 0.43594 14.3884 0.542501 14.4327C0.649062 14.4771 0.763358 14.5 0.878797 14.5C0.994237 14.5 1.10853 14.4771 1.21509 14.4327C1.32166 14.3884 1.41837 14.3233 1.49966 14.2413L7.00001 8.73224L12.5004 14.2413C12.5817 14.3233 12.6784 14.3884 12.7849 14.4327C12.8915 14.4771 13.0058 14.5 13.1212 14.5C13.2367 14.5 13.351 14.4771 13.4575 14.4327C13.5641 14.3884 13.6608 14.3233 13.7421 14.2413C13.8241 14.16 13.8891 14.0633 13.9335 13.9568C13.9779 13.8502 14.0008 13.7359 14.0008 13.6205C14.0008 13.505 13.9779 13.3907 13.9335 13.2842C13.8891 13.1776 13.8241 13.0809 13.7421 12.9996L8.233 7.49925Z" fill="#747474"/>
</svg>
