<svg width="14" height="11" viewBox="0 0 14 11" fill="none" xmlns="http://www.w3.org/2000/svg">
<path d="M13.68 0.703478C13.5874 0.610109 13.4772 0.536 13.3559 0.485425C13.2345 0.434851 13.1043 0.408813 12.9728 0.408813C12.8412 0.408813 12.711 0.434851 12.5897 0.485425C12.4683 0.536 12.3581 0.610109 12.2655 0.703478L4.84402 8.13489L1.72602 5.00692C1.62987 4.91404 1.51636 4.84101 1.39198 4.79199C1.26761 4.74298 1.1348 4.71894 1.00113 4.72125C0.867462 4.72357 0.73556 4.75218 0.612954 4.80547C0.490347 4.85876 0.379436 4.93568 0.286555 5.03183C0.193674 5.12798 0.120641 5.24148 0.0716256 5.36586C0.0226102 5.49024 -0.00142782 5.62305 0.000884754 5.75672C0.00319732 5.89038 0.0318151 6.02229 0.0851035 6.14489C0.138392 6.2675 0.215308 6.37841 0.31146 6.47129L4.13674 10.2966C4.22935 10.3899 4.33953 10.4641 4.46092 10.5146C4.58231 10.5652 4.71252 10.5912 4.84402 10.5912C4.97553 10.5912 5.10573 10.5652 5.22713 10.5146C5.34852 10.4641 5.4587 10.3899 5.5513 10.2966L13.68 2.16785C13.7811 2.07456 13.8618 1.96135 13.917 1.83533C13.9722 1.70932 14.0007 1.57323 14.0007 1.43566C14.0007 1.29809 13.9722 1.16201 13.917 1.03599C13.8618 0.909978 13.7811 0.796762 13.68 0.703478Z" fill="white"/>
</svg>
