<svg width="15" height="15" viewBox="0 0 15 15" fill="none" xmlns="http://www.w3.org/2000/svg">
<path d="M8.72787 7.49516L14.237 1.99481C14.4016 1.83015 14.4941 1.60682 14.4941 1.37395C14.4941 1.14108 14.4016 0.917746 14.237 0.753082C14.0723 0.588418 13.849 0.495911 13.6161 0.495911C13.3832 0.495911 13.1599 0.588418 12.9952 0.753082L7.49489 6.26218L1.99454 0.753082C1.82987 0.588418 1.60654 0.495911 1.37367 0.495911C1.1408 0.495911 0.917468 0.588418 0.752804 0.753082C0.58814 0.917746 0.495633 1.14108 0.495633 1.37395C0.495633 1.60682 0.58814 1.83015 0.752804 1.99481L6.2619 7.49516L0.752804 12.9955C0.670843 13.0768 0.605788 13.1735 0.561393 13.2801C0.516998 13.3866 0.494141 13.5009 0.494141 13.6164C0.494141 13.7318 0.516998 13.8461 0.561393 13.9527C0.605788 14.0592 0.670843 14.156 0.752804 14.2372C0.834097 14.3192 0.930813 14.3843 1.03737 14.4287C1.14393 14.4731 1.25823 14.4959 1.37367 14.4959C1.48911 14.4959 1.60341 14.4731 1.70997 14.4287C1.81653 14.3843 1.91324 14.3192 1.99454 14.2372L7.49489 8.72815L12.9952 14.2372C13.0765 14.3192 13.1732 14.3843 13.2798 14.4287C13.3864 14.4731 13.5007 14.4959 13.6161 14.4959C13.7315 14.4959 13.8458 14.4731 13.9524 14.4287C14.059 14.3843 14.1557 14.3192 14.237 14.2372C14.3189 14.156 14.384 14.0592 14.4284 13.9527C14.4728 13.8461 14.4956 13.7318 14.4956 13.6164C14.4956 13.5009 14.4728 13.3866 14.4284 13.2801C14.384 13.1735 14.3189 13.0768 14.237 12.9955L8.72787 7.49516Z" fill="#EE5454"/>
</svg>
