<svg width="54" height="50" viewBox="0 0 54 50" fill="none" xmlns="http://www.w3.org/2000/svg">
<path d="M8.05874 2H18.8823L24.294 15.5294L17.5293 19.5882C20.4272 25.4641 25.1828 30.2198 31.0587 33.1176L35.1176 26.3529L48.647 31.7647V42.5882C48.647 44.0235 48.0768 45.4 47.0619 46.4149C46.047 47.4298 44.6705 48 43.2352 48C32.6803 47.3586 22.725 42.8764 15.2478 35.3992C7.77057 27.9219 3.2884 17.9667 2.64697 7.41176C2.64697 5.97648 3.21714 4.59997 4.23204 3.58507C5.24694 2.57017 6.62345 2 8.05874 2" stroke="#12C223" stroke-width="4" stroke-linecap="round" stroke-linejoin="round"/>
<path d="M35.1176 7.41176L40.5293 12.8235L51.3528 2" stroke="#12C223" stroke-width="4" stroke-linecap="round" stroke-linejoin="round"/>
</svg>
